<?xml version="1.0" standalone="no"?>
<!DOCTYPE svg PUBLIC "-//W3C//DTD SVG 20010904//EN"
 "http://www.w3.org/TR/2001/REC-SVG-20010904/DTD/svg10.dtd">
<svg version="1.0" xmlns="http://www.w3.org/2000/svg"
 width="450.000000pt" height="448.000000pt" viewBox="0 0 450.000000 448.000000"
 preserveAspectRatio="xMidYMid meet">

<g transform="translate(0.000000,448.000000) scale(0.100000,-0.100000)"
fill="#000000" stroke="none">
<path d="M0 2240 l0 -2240 2250 0 2250 0 0 2240 0 2240 -2250 0 -2250 0 0
-2240z m1248 2049 c2 -5 8 -9 14 -9 6 0 26 -11 45 -26 52 -40 87 -120 76 -176
-8 -43 -84 -115 -185 -177 -48 -29 -93 -60 -99 -67 -6 -8 -15 -14 -19 -14 -5
0 -43 -24 -85 -52 -42 -29 -84 -57 -93 -63 -9 -5 -23 -16 -31 -23 -8 -8 -33
-25 -55 -39 -23 -14 -43 -29 -46 -33 -3 -3 -21 -15 -40 -26 -19 -10 -42 -24
-50 -31 -32 -25 -196 -81 -239 -81 -107 -1 -156 61 -155 194 0 57 6 79 29 122
15 28 36 59 46 68 18 16 18 14 12 -34 -8 -67 -1 -90 41 -133 60 -64 150 -62
215 5 44 45 58 132 30 187 -35 71 -166 104 -215 55 -9 -9 -19 -14 -23 -11 -3
4 8 18 24 32 17 14 50 43 74 64 23 22 49 39 57 39 8 0 14 4 14 8 0 9 77 62 90
62 5 0 10 3 12 8 3 7 25 20 129 76 62 34 194 75 271 85 68 9 151 4 156 -10z
m2262 -188 c263 -58 527 -258 630 -476 13 -27 27 -57 31 -66 16 -34 21 -128 9
-166 -32 -96 -107 -167 -170 -160 -58 6 -99 32 -234 150 -138 121 -231 188
-445 318 -115 71 -177 125 -187 165 -13 50 3 131 33 173 61 85 151 102 333 62z
m-3108 -213 c-7 -7 -12 -8 -12 -2 0 14 12 26 19 19 2 -3 -1 -11 -7 -17z m2034
-173 c109 -10 137 -13 186 -24 24 -6 57 -12 73 -15 138 -26 394 -113 495 -168
41 -23 85 -46 97 -52 13 -6 23 -17 23 -23 0 -21 -102 -135 -160 -179 -61 -47
-127 -67 -215 -67 -66 0 -137 26 -168 61 -19 20 -18 22 15 69 40 58 78 132 78
154 0 21 -28 45 -39 33 -5 -5 -26 -42 -47 -82 -73 -139 -139 -182 -278 -182
-90 0 -149 25 -207 88 -49 54 -59 78 -38 99 6 6 17 36 24 67 11 46 11 57 -1
67 -20 17 -43 4 -49 -28 -16 -77 -41 -118 -98 -162 -52 -41 -65 -46 -121 -49
-87 -6 -139 25 -213 123 -56 76 -119 207 -108 225 3 4 26 11 52 14 27 4 57 9
68 12 134 26 447 36 631 19z m-746 -504 c294 -78 512 -379 485 -670 -8 -93
-30 -182 -58 -236 -24 -47 -93 -139 -133 -176 -55 -50 -166 -118 -233 -141
-91 -31 -291 -32 -398 -1 -163 46 -318 175 -395 328 -63 124 -79 224 -63 393
22 219 192 419 423 498 89 31 265 33 372 5z m1544 -241 c188 -48 329 -165 418
-347 l50 -103 4 -118 c5 -170 -16 -250 -97 -372 -104 -156 -300 -260 -489
-260 -102 1 -147 14 -349 106 -73 34 -140 100 -199 197 -75 124 -87 168 -87
322 1 108 4 141 23 196 42 122 125 226 241 302 96 64 126 72 204 59 72 -11
130 -3 156 22 20 20 32 20 125 -4z m-999 -1030 c121 -15 122 -15 129 -55 4
-19 11 -35 16 -35 5 0 15 -6 22 -13 12 -11 41 -24 156 -73 18 -8 39 -14 46
-14 8 0 21 -11 29 -24 21 -31 32 -76 19 -76 -12 0 -162 49 -176 58 -6 3 -17 7
-24 8 -8 2 -46 18 -85 37 -116 56 -185 87 -194 87 -5 0 -25 11 -45 25 -46 31
-59 31 -109 -1 -23 -14 -43 -23 -46 -20 -3 3 7 31 22 61 l27 56 67 -5 c36 -3
102 -10 146 -16z m-1175 -126 c0 -8 -5 -12 -10 -9 -6 4 -8 11 -5 16 9 14 15
11 15 -7z m65 -33 c-5 -10 27 -33 42 -30 19 3 57 -3 46 -8 -7 -2 -13 -9 -13
-14 0 -6 8 -5 20 1 15 8 21 6 30 -10 6 -11 7 -20 2 -20 -4 0 -8 -26 -7 -57 0
-43 -6 -69 -23 -101 -31 -56 -57 -72 -113 -72 -41 0 -51 5 -88 43 l-43 42 6
70 c9 92 23 123 61 132 16 4 35 6 41 5 6 -1 17 5 24 13 14 17 25 21 15 6z
m1805 -37 c109 -56 159 -128 108 -155 -44 -24 -295 14 -302 45 -4 15 -22 67
-31 88 -6 14 -1 16 33 11 40 -5 102 17 102 37 0 17 18 11 90 -26z m537 -216
c7 -6 10 -15 6 -21 -4 -6 2 -8 17 -4 13 3 29 2 36 -4 7 -6 21 -6 38 1 24 9 26
8 20 -14 -3 -13 -1 -27 5 -30 7 -4 7 -15 1 -31 -5 -14 -7 -32 -4 -40 4 -8 2
-21 -4 -28 -5 -6 -13 -23 -17 -36 -4 -14 -18 -36 -31 -50 -19 -20 -32 -25 -66
-24 -90 3 -98 6 -123 56 -16 32 -21 147 -6 147 11 0 21 38 11 42 -4 2 -4 12 1
23 6 16 8 17 8 3 1 -14 5 -13 28 8 26 24 51 25 80 2z m80 -10 c-3 -8 -6 -5 -6
6 -1 11 2 17 5 13 3 -3 4 -12 1 -19z m-447 -650 c5 -13 9 -17 9 -10 1 17 30
15 37 -3 9 -22 23 -18 17 5 -3 11 -3 20 1 20 3 0 15 -9 26 -20 11 -11 27 -20
35 -20 12 0 14 -9 10 -42 -16 -136 -24 -156 -78 -181 -25 -12 -42 -14 -65 -8
-17 5 -32 7 -35 5 -8 -8 -68 67 -62 77 4 5 1 9 -5 9 -12 0 -9 71 6 132 5 23
10 26 34 21 22 -4 29 -1 35 16 8 27 23 27 35 -1z"/>
<path d="M3918 3674 c-55 -29 -88 -130 -66 -197 24 -71 99 -117 170 -103 21 4
49 21 72 45 31 32 38 47 43 92 7 66 -22 136 -66 162 -35 20 -115 21 -153 1z"/>
<path d="M1683 2742 c-31 -5 -83 -67 -83 -100 0 -37 34 -90 66 -102 60 -23
131 -2 152 45 42 91 -28 172 -135 157z"/>
<path d="M3111 2510 c-59 -9 -91 -45 -91 -103 1 -90 94 -137 175 -87 52 32 66
87 36 137 -27 44 -66 61 -120 53z"/>
<path d="M1068 1743 c7 -3 16 -2 19 1 4 3 -2 6 -13 5 -11 0 -14 -3 -6 -6z"/>
</g>
</svg>
